<svg width="22" height="19" viewBox="0 0 22 19" fill="none" xmlns="http://www.w3.org/2000/svg">
<path d="M16.2181 6.83602C16.5417 6.57751 16.5945 6.10558 16.336 5.78194C16.0775 5.45829 15.6056 5.40548 15.2819 5.66398L12.1529 8.16324L12.1522 8.16376C11.3958 8.76537 10.0945 8.76541 9.33795 8.16389L9.33713 8.16324L6.21898 5.66471C5.89574 5.4057 5.42373 5.45778 5.16471 5.78102C4.9057 6.10426 4.95778 6.57628 5.28102 6.83529L8.40102 9.33529L8.40286 9.33676C9.70626 10.3744 11.7837 10.3744 13.0871 9.33676L13.0881 9.33602L16.2181 6.83602Z" fill="white"/>
<path fill-rule="evenodd" clip-rule="evenodd" d="M5.75 0C4.13503 0 2.67465 0.403634 1.61466 1.3879C0.544615 2.38152 0 3.85705 0 5.75V12.75C0 14.6429 0.544615 16.1185 1.61466 17.1121C2.67465 18.0964 4.13503 18.5 5.75 18.5H15.75C17.365 18.5 18.8254 18.0964 19.8853 17.1121C20.9554 16.1185 21.5 14.6429 21.5 12.75V5.75C21.5 3.85705 20.9554 2.38152 19.8853 1.3879C18.8254 0.403634 17.365 0 15.75 0H5.75ZM1.5 5.75C1.5 4.14295 1.95538 3.11848 2.63534 2.4871C3.32535 1.84637 4.36497 1.5 5.75 1.5H15.75C17.135 1.5 18.1746 1.84637 18.8647 2.4871C19.5446 3.11848 20 4.14295 20 5.75V12.75C20 14.3571 19.5446 15.3815 18.8647 16.0129C18.1746 16.6536 17.135 17 15.75 17H5.75C4.36497 17 3.32535 16.6536 2.63534 16.0129C1.95538 15.3815 1.5 14.3571 1.5 12.75V5.75Z" fill="white"/>
<path d="M16.2181 6.83602C16.5417 6.57751 16.5945 6.10558 16.336 5.78194C16.0775 5.45829 15.6056 5.40548 15.2819 5.66398L12.1529 8.16324L12.1522 8.16376C11.3958 8.76537 10.0945 8.76541 9.33795 8.16389L9.33713 8.16324L6.21898 5.66471C5.89574 5.4057 5.42373 5.45778 5.16471 5.78102C4.9057 6.10426 4.95778 6.57628 5.28102 6.83529L8.40102 9.33529L8.40286 9.33676C9.70626 10.3744 11.7837 10.3744 13.0871 9.33676L13.0881 9.33602L16.2181 6.83602Z" stroke="white"/>
<path fill-rule="evenodd" clip-rule="evenodd" d="M5.75 0C4.13503 0 2.67465 0.403634 1.61466 1.3879C0.544615 2.38152 0 3.85705 0 5.75V12.75C0 14.6429 0.544615 16.1185 1.61466 17.1121C2.67465 18.0964 4.13503 18.5 5.75 18.5H15.75C17.365 18.5 18.8254 18.0964 19.8853 17.1121C20.9554 16.1185 21.5 14.6429 21.5 12.75V5.75C21.5 3.85705 20.9554 2.38152 19.8853 1.3879C18.8254 0.403634 17.365 0 15.75 0H5.75ZM1.5 5.75C1.5 4.14295 1.95538 3.11848 2.63534 2.4871C3.32535 1.84637 4.36497 1.5 5.75 1.5H15.75C17.135 1.5 18.1746 1.84637 18.8647 2.4871C19.5446 3.11848 20 4.14295 20 5.75V12.75C20 14.3571 19.5446 15.3815 18.8647 16.0129C18.1746 16.6536 17.135 17 15.75 17H5.75C4.36497 17 3.32535 16.6536 2.63534 16.0129C1.95538 15.3815 1.5 14.3571 1.5 12.75V5.75Z" stroke="white"/>
</svg>
