<svg width="19" height="22" viewBox="0 0 19 22" fill="none" xmlns="http://www.w3.org/2000/svg">
<path fill-rule="evenodd" clip-rule="evenodd" d="M9.37367 5.18994C7.23633 5.18994 5.50367 6.9226 5.50367 9.05994C5.50367 11.1973 7.23633 12.9299 9.37367 12.9299C11.511 12.9299 13.2437 11.1973 13.2437 9.05994C13.2437 6.9226 11.511 5.18994 9.37367 5.18994ZM7.00367 9.05994C7.00367 7.75103 8.06475 6.68994 9.37367 6.68994C10.6826 6.68994 11.7437 7.75103 11.7437 9.05994C11.7437 10.3689 10.6826 11.4299 9.37367 11.4299C8.06475 11.4299 7.00367 10.3689 7.00367 9.05994Z" fill="white"/>
<path fill-rule="evenodd" clip-rule="evenodd" d="M9.378 2.31535e-06C13.3585 0.00269287 17.4137 2.35029 18.4852 7.08441C19.728 12.5742 16.3018 17.1337 13.4938 19.8304C11.1925 22.0508 7.55351 22.0488 5.24423 19.8309L5.24328 19.83C2.44553 17.1336 -0.980456 12.5639 0.262247 7.07441L0.262421 7.07364C1.33935 2.33953 5.39736 -0.00268824 9.378 2.31535e-06ZM1.72514 7.40597C2.61835 3.48034 5.96023 1.49769 9.37698 1.5C12.7939 1.50231 16.1337 3.48971 17.0222 7.41556C18.0794 12.0854 15.1862 16.1256 12.4543 18.749L12.4529 18.7504C10.7344 20.409 8.0143 20.411 6.2838 18.7496C3.56174 16.126 0.668137 12.0761 1.72514 7.40597Z" fill="white"/>
<path fill-rule="evenodd" clip-rule="evenodd" d="M9.37367 5.18994C7.23633 5.18994 5.50367 6.9226 5.50367 9.05994C5.50367 11.1973 7.23633 12.9299 9.37367 12.9299C11.511 12.9299 13.2437 11.1973 13.2437 9.05994C13.2437 6.9226 11.511 5.18994 9.37367 5.18994ZM7.00367 9.05994C7.00367 7.75103 8.06475 6.68994 9.37367 6.68994C10.6826 6.68994 11.7437 7.75103 11.7437 9.05994C11.7437 10.3689 10.6826 11.4299 9.37367 11.4299C8.06475 11.4299 7.00367 10.3689 7.00367 9.05994Z" stroke="white"/>
<path fill-rule="evenodd" clip-rule="evenodd" d="M9.378 2.31535e-06C13.3585 0.00269287 17.4137 2.35029 18.4852 7.08441C19.728 12.5742 16.3018 17.1337 13.4938 19.8304C11.1925 22.0508 7.55351 22.0488 5.24423 19.8309L5.24328 19.83C2.44553 17.1336 -0.980456 12.5639 0.262247 7.07441L0.262421 7.07364C1.33935 2.33953 5.39736 -0.00268824 9.378 2.31535e-06ZM1.72514 7.40597C2.61835 3.48034 5.96023 1.49769 9.37698 1.5C12.7939 1.50231 16.1337 3.48971 17.0222 7.41556C18.0794 12.0854 15.1862 16.1256 12.4543 18.749L12.4529 18.7504C10.7344 20.409 8.0143 20.411 6.2838 18.7496C3.56174 16.126 0.668137 12.0761 1.72514 7.40597Z" stroke="white"/>
</svg>
